<svg width="21" height="10" viewBox="0 0 21 10" fill="none" xmlns="http://www.w3.org/2000/svg">
<path d="M6.81818 0L0 5L6.81818 10H20.7071V0H6.81818ZM16.7172 7.62626C16.9697 7.87879 16.9697 8.23232 16.7172 8.43434C16.4646 8.63636 16.1111 8.68687 15.9091 8.43434L13.3333 5.85859L10.7576 8.43434C10.5051 8.68687 10.1515 8.68687 9.9495 8.43434C9.74748 8.18182 9.69697 7.82828 9.9495 7.62626L12.5253 5.05051L9.9495 2.47475C9.69697 2.22222 9.69697 1.86869 9.9495 1.66667C10.202 1.46465 10.5556 1.41414 10.7576 1.66667L13.3333 4.24242L15.9091 1.66667C16.1616 1.41414 16.5152 1.41414 16.7172 1.66667C16.9192 1.91919 16.9697 2.27273 16.7172 2.47475L14.1414 5L16.7172 7.62626Z" fill="#231F20"/>
</svg>
